<?xml version="1.0" encoding="UTF-8" standalone="no"?>
<svg
   id="crew"
   width="21m"
   height="2.5m"
   viewBox="0 0 21 2.5"
   version="1.1"
   xml:space="preserve"
   xmlns="http://www.w3.org/2000/svg"
   xmlns:svg="http://www.w3.org/2000/svg">
  <defs>
    <style>
      #crew .glitch_1 {
        transform: translateX(0.15%);
        animation: glitch_1 1.5s infinite;
      }
      @keyframes glitch_1 {
        0% {
          clip-path: polygon(0 0%, 100% 0%, 100% 5%, 0 5%);
        }
        10% {
          clip-path: polygon(0 15%, 100% 15%, 100% 15%, 0 15%);
        }
        20% {
          clip-path: polygon(0 10%, 100% 10%, 100% 20%, 0 20%);
        }
        30% {
          clip-path: polygon(0 1%, 100% 1%, 100% 2%, 0 2%);
        }
        40% {
          clip-path: polygon(0 35%, 100% 35%, 100% 35%, 0 35%);
        }
        50% {
          clip-path: polygon(0 45%, 100% 45%, 100% 46%, 0 46%);
        }
        60% {
          clip-path: polygon(0 50%, 100% 50%, 100% 70%, 0 70%);
        }
        70% {
          clip-path: polygon(0 70%, 100% 70%, 100% 70%, 0 70%);
        }
        80% {
          clip-path: polygon(0 80%, 100% 80%, 100% 80%, 0 80%);
        }
        90% {
          clip-path: polygon(0 50%, 100% 50%, 100% 55%, 0 55%);
        }
        100% {
          clip-path: polygon(0 60%, 100% 60%, 100% 70%, 0 70%);
        }
      }
      #crew .glitch_2 {
        animation: glitch_2 3s infinite;
      }
      @keyframes glitch_2 {
        0% {
          transform: translateX(-0.8%);
          opacity: .3;
        }
        30%, 100% {
          transform: translateX(0%);
          opacity: 0;
        }
      }
    </style>
  </defs>
  <path
   style="fill:#000000"
   d="m 7.2429699,0.1796297 -0.712101,1.79368 -0.655774,-1.75906 -0.121956,0.0475 0.772562,2.08204 0.717269,-1.80454 0.716752,1.80454 0.772563,-2.08204 -0.12144,-0.0475 -0.65629,1.75906 z m 8.1726271,0.0186 -0.10542,0.0796 0.687813,0.94413 -0.743624,1.02164 0.105937,0.0791 0.719853,-0.98651 0.719336,0.98651 0.10852,-0.0791 -0.746207,-1.02164 0.690913,-0.94413 -0.105936,-0.0796 -0.666626,0.91261 z m 1.83658,0.003 -0.10852,0.0739 0.827856,1.18804 v 0.82011 h 0.132292 v -0.82011 l 0.828373,-1.18804 -0.10852,-0.0739 -0.785999,1.12448 z m -15.930809,0.003 c -0.144639,0 -0.282367,0.0275 -0.41289496,0.0822 -0.127,0.0547 -0.238063,0.13037 -0.333313,0.22738 -0.09878,0.0952 -0.17446,0.20713 -0.227376,0.3359 -0.05468,0.127 -0.08217,0.2639 -0.08217,0.41031 0,0.1464 0.02749,0.28331 0.08217,0.41031 0.05115,0.12347 0.126835,0.23535 0.227376,0.33589 0.04762,0.0494 0.09962,0.0927 0.156063,0.12971 0.05644,0.037 0.115514,0.0694 0.17725,0.0977 0.13581896,0.0547 0.27354796,0.0822 0.41289496,0.0822 0.139347,0 0.276255,-0.0275 0.410311,-0.0822 0.123472,-0.0512 0.235355,-0.12683 0.335896,-0.22738 l -0.09508,-0.0925 c -0.08643,0.0882 -0.186318,0.15516 -0.299207,0.20102 -0.111125,0.0459 -0.228444,0.0687 -0.351916,0.0687 -0.127,0 -0.24678,-0.0237 -0.35966796,-0.0713 -0.112889,-0.0494 -0.21062,-0.11553 -0.293522,-0.19844 -0.0829,-0.0847 -0.149049,-0.18291 -0.198438,-0.29404 -0.01783,-0.0422 -0.02915,-0.0865 -0.04031,-0.13074 l 0.08217,0.0253 0.01757,-0.078 -0.120406,-0.0847 0.0078,-0.0935 0.100253,0.0377 0.0031,-0.0682 0.08423,0.0331 0.05013,0.14573 0.09508,0.0465 -0.04134,0.032 0.150379,0.36018 0.104386,0.0119 -0.0801,-0.2682 -0.04237,-0.0357 0.06511,0.008 0.11523896,0.28525 0.625801,0.0749 0.02532,-0.0109 -0.0088,-0.10542 0.01085,-0.0868 -0.03617,-0.0558 -0.0015,-0.1509 -0.01757,-0.006 -0.01292,0.0672 -0.02894,-0.0935 -0.0124,0.0134 -0.0057,-10e-4 0.0057,0.0124 h -0.01395 l -0.0093,-0.01 -10e-4,-0.0222 -0.0124,0.0155 -0.0052,-0.005 -0.0031,0.007 -0.0052,-0.005 -0.01447,-10e-4 -0.0041,0.0341 -0.01499,-0.0357 -0.02274,0.016 -0.0083,-0.0103 -0.0057,0.0186 -0.0036,-0.0145 -0.0041,0.003 -0.01085,-0.007 -0.0124,0.004 0.0052,0.0496 -0.01705,-0.0258 -0.0036,0.0372 -0.02636,-0.0517 -0.02119,0.006 0.02015,0.11524 -0.03049,-0.11679 -0.06459,0.006 -0.01292,0.0651 -0.02377,-0.0413 -0.07286,0.0155 0.01912,0.0558 -0.0083,0.007 -0.03359,-0.046 -0.0987,-0.0108 0.05219,0.12144 -0.15192797,-0.19741 0.01447,-0.0858 -0.109554,-0.0775 -0.04858,0.0496 -0.09457,-0.047 -0.04289,-0.12454 -0.150378,-0.0486 0.05684,-0.017 0.0832,-0.13591002 -0.0041,-0.1912 0.04961,-0.0238 -0.02946,-0.12299 0.01137,-0.004 0.04754,0.0997 0.07338,-0.0548 -0.02584,-0.1788 c 0.01287,-0.009 0.02482,-0.0197 0.03824,-0.0284 l 0.02997,0.20205 -0.0832,0.22376 0.05168,0.0806 -0.179317,0.10490002 -0.0021,0.045 0.116272,-0.002 0.201021,0.1772501 0.0863,-0.0491 0.06666,0.0703 0.04754,0.10077 0.02945,-0.003 0.04238,0.0749 0.01137,-0.0191 0.0067,0.0165 0.01912,0.002 -0.0031,-0.0393 0.03772,0.0129 0.0026,-0.0393 0.0155,0.0139 0.0078,0.0295 0.01085,-0.032 5.17e-4,-0.0264 0.04392,0.0387 0.01085,-0.0605 0.02067,0.0408 0.01964,-0.0124 0.01395,0.0233 0.01085,-0.0284 -0.0057,-0.0217 0.03049,0.0264 -0.01188,-0.0538 0.03359,0.0568 0.02119,-0.0274 0.01912,0.003 0.0098,0.0413 0.02997,-0.004 0.0062,-0.0357 h 0.0155 l 0.01602,0.0455 0.0093,-0.0155 0.02274,-0.001 -0.02636,-0.0842 0.07803,-0.10904 -0.02584,-0.33021012 0.04238,-0.18087 -0.117822,-0.13023 -0.173116,-0.26871 c 0.0864,0.009 0.170628,0.0259 0.25063,0.0589 0.112889,0.0459 0.212776,0.11283 0.299207,0.20102 l 0.09508,-0.0925 c -0.100541,-0.10054 -0.212424,-0.17622 -0.335896,-0.22738 -0.127,-0.0547 -0.263909,-0.0822 -0.410311,-0.0822 z m 9.524999,0.008 -0.12144,0.0527 0.936377,2.06912 0.936894,-2.06912 -0.121957,-0.0527 -0.814937,1.80144 z m -8.3292071,0.0264 v 2.04484 h 0.132292 v -0.73794 h 0.426331 0.02377 l 0.597896,0.77773 0.105937,-0.0791 -0.54777,-0.7121 c 0.14993,-0.0265 0.274326,-0.088 0.373103,-0.185 0.128764,-0.12524 0.19327,-0.28747 0.19327,-0.48679 0,-0.0988 -0.01877,-0.18779 -0.05581,-0.26717 -0.03528,-0.0794 -0.08891,-0.14634 -0.161231,-0.20102 -0.132291,-0.10231 -0.307041,-0.15348 -0.523999,-0.15348 z m 1.759583,0 v 2.04484 h 1.121895 v -0.13229 h -0.989603 v -0.8754 h 0.963248 v -0.1323 h -0.963248 v -0.77256 h 0.989603 v -0.13229 z m 4.797123,0 v 2.04484 h 0.132292 v -0.73794 h 0.425814 0.02119 c 0.105833,0 0.203564,-0.0166 0.293522,-0.0501 0.09172,-0.0353 0.1712011,-0.0848 0.2382281,-0.14831 0.128763,-0.12524 0.193269,-0.28747 0.193269,-0.48679 0,-0.20285 -0.07404,-0.35965 -0.222207,-0.47077 -0.132292,-0.10055 -0.3054021,-0.1509 -0.5188321,-0.1509 z m 3.8974361,0 v 2.04484 h 0.132291 v -0.73794 h 0.425814 0.02119 c 0.105834,0 0.203564,-0.0166 0.293523,-0.0501 0.09172,-0.0353 0.1712,-0.0848 0.238228,-0.14831 0.128764,-0.12524 0.19327,-0.28747 0.19327,-0.48679 0,-0.20285 -0.07404,-0.35965 -0.222209,-0.47077 -0.132291,-0.10055 -0.305401,-0.1509 -0.518831,-0.1509 z m 6.397542,0 v 0.13229 h 1.150834 l -1.322917,1.91255 h 1.452625 v -0.13229 h -1.201477 l 1.322917,-1.91255 z m -16.7193921,0.13229 h 0.431498 c 0.04586,0 0.103291,0.005 0.172083,0.0155 0.06879,0.009 0.135757,0.03 0.201021,0.0636 0.06526,0.0335 0.120537,0.083 0.166398,0.14831 0.04586,0.0635 0.06925,0.15087 0.06925,0.262 0,0.16228 -0.05117,0.29293 -0.153479,0.39171 -0.05644,0.0547 -0.123411,0.0958 -0.201022,0.12402 -0.07761,0.0282 -0.163346,0.0407 -0.256832,0.0372 h -0.428914 z m 6.556706,0 h 0.430981 c 0.192264,0 0.341685,0.0433 0.4475181,0.12971 0.107597,0.0847 0.161231,0.20445 0.161231,0.35967 0,0.16228 -0.05117,0.29293 -0.153479,0.39171 -0.05645,0.0547 -0.1234111,0.0958 -0.2010221,0.12402 -0.07761,0.0265 -0.163346,0.039 -0.256832,0.0372 h -0.428397 z m 3.8974351,0 h 0.430982 c 0.192263,0 0.341168,0.0433 0.447001,0.12971 0.107597,0.0847 0.161747,0.20445 0.161747,0.35967 0,0.16228 -0.05117,0.29293 -0.153479,0.39171 -0.05644,0.0547 -0.12341,0.0958 -0.201021,0.12402 -0.07761,0.0265 -0.163346,0.039 -0.256832,0.0372 h -0.428398 z m -11.954825,0.20826 c 0.01894,8.3e-4 0.04016,0.0327 0.05426,0.045 0.01637,0.014 0.03721,0.0574 0.03721,0.0574 0,0 0.008,0.0624 0.0047,0.0786 -0.0033,0.0162 -0.01777,0.026 -0.01344,0.0413 0.0043,0.0153 -0.01292,0.11989 -0.01292,0.11989 0,0 -0.05956,0.0555 -0.07131,0.0667 -0.01175,0.0112 -0.07427,0.0358 -0.09147,0.0398 -0.0172,0.004 -0.09427,0.004 -0.11523896,-0.002 -0.02101,-0.005 -0.03584,-0.0236 -0.05219,-0.0393 -0.01636,-0.0156 -0.02728,-0.0504 -0.04031,-0.0801 -0.01304,-0.0297 0.07771,-0.25479 0.0801,-0.25838 0.0023,-0.003 0.07648,-0.0506 0.07648,-0.0506 l 0.06201,-0.0165 0.02894,0.0517 c 0.001,9e-5 0.0055,-1e-5 0.01085,-0.005 0.006,-0.006 0.01287,-0.0332 0.03359,-0.0455 0.0026,-0.002 0.005,-0.002 0.0078,-0.002 3.07e-4,0 7.43e-4,-1e-5 0.001,0 z m 0.315227,0.0692 0.07493,0.0315 0.0894,0.10387 c 0,0 -0.01268,0.13567 -0.01499,0.15813 -0.0022,0.0225 0.01137,0.14882 0.01137,0.14882 l -0.129191,-0.13435 c 0,0 -0.0018,0.0782 -0.0041,0.11058 -0.0023,0.0324 -0.01912,0.13436 -0.01912,0.13436 l -0.04134,-0.0822 -0.05529,-0.006 -0.0047,-0.13901002 c 0,0 0.02772,-0.0384 0.02842,-0.0476 7.1e-4,-0.01 -0.05323,-0.10593 -0.05323,-0.10593 l 0.08888,0.0703 5.17e-4,-0.0739 -0.07752,-0.0858 0.05116,0.007 z m -0.454236,0.0109 c 0,0 -0.01834,0.0417 -0.01912,0.0522 -7.88e-4,0.0106 0.0015,0.0212 0.0015,0.0212 l 0.01499,-0.015 -10e-4,0.0264 0.02481,0.0103 0.01189,-0.006 0.0026,-0.032 0.0072,-0.002 -0.0026,-0.0207 z m 0.05219,0.17363 -0.02274,0.0114 -0.0015,0.0434 0.0155,0.002 -0.0016,0.014 0.0248,0.0129 0.01705,-0.008 0.0057,-0.0217 -0.02274,-0.0124 0.0052,-0.0243 -0.01189,0.0124 z m 0.225309,0.0114 0.05116,0.0889 c 0,0 -0.02261,0.0412 -0.02584,0.0558 -0.0032,0.0145 0.0041,0.0646 0.0041,0.0646 l -0.02842,-0.0661 -0.02739,-0.002 c 0,0 0.01972,-0.0646 0.02015,-0.0703 3.94e-4,-0.005 0.0062,-0.0695 0.0062,-0.0698 z m -0.259932,0.44648 -0.03514,0.0434 c 0,0 0.02091,0.11037 0.02429,0.11214 0.0033,0.002 0.105936,0.10335 0.105936,0.10335 l 0.0062,-0.0326 0.02377,0.0212 0.02222,-0.0124 0.01964,0.002 -0.02791,-0.0631 -0.07286,-0.0341 z m 13.774869,0.80512 c -0.03175,0 -0.05924,0.0117 -0.08217,0.0346 -0.02293,0.0229 -0.03462,0.0499 -0.03462,0.0816 0,0.0317 0.01169,0.0584 0.03462,0.0796 0.02293,0.0229 0.05042,0.0341 0.08217,0.0341 0.03175,0 0.05872,-0.0112 0.08165,-0.0341 0.02293,-0.0212 0.03462,-0.0478 0.03462,-0.0796 0,-0.0318 -0.01169,-0.0587 -0.03462,-0.0816 -0.02293,-0.0229 -0.0499,-0.0346 -0.08165,-0.0346 z"/>
  <path
   class="glitch_1"
   style="fill:#000000"
   d="m 7.2429699,0.1796297 -0.712101,1.79368 -0.655774,-1.75906 -0.121956,0.0475 0.772562,2.08204 0.717269,-1.80454 0.716752,1.80454 0.772563,-2.08204 -0.12144,-0.0475 -0.65629,1.75906 z m 8.1726271,0.0186 -0.10542,0.0796 0.687813,0.94413 -0.743624,1.02164 0.105937,0.0791 0.719853,-0.98651 0.719336,0.98651 0.10852,-0.0791 -0.746207,-1.02164 0.690913,-0.94413 -0.105936,-0.0796 -0.666626,0.91261 z m 1.83658,0.003 -0.10852,0.0739 0.827856,1.18804 v 0.82011 h 0.132292 v -0.82011 l 0.828373,-1.18804 -0.10852,-0.0739 -0.785999,1.12448 z m -15.930809,0.003 c -0.144639,0 -0.282367,0.0275 -0.41289496,0.0822 -0.127,0.0547 -0.238063,0.13037 -0.333313,0.22738 -0.09878,0.0952 -0.17446,0.20713 -0.227376,0.3359 -0.05468,0.127 -0.08217,0.2639 -0.08217,0.41031 0,0.1464 0.02749,0.28331 0.08217,0.41031 0.05115,0.12347 0.126835,0.23535 0.227376,0.33589 0.04762,0.0494 0.09962,0.0927 0.156063,0.12971 0.05644,0.037 0.115514,0.0694 0.17725,0.0977 0.13581896,0.0547 0.27354796,0.0822 0.41289496,0.0822 0.139347,0 0.276255,-0.0275 0.410311,-0.0822 0.123472,-0.0512 0.235355,-0.12683 0.335896,-0.22738 l -0.09508,-0.0925 c -0.08643,0.0882 -0.186318,0.15516 -0.299207,0.20102 -0.111125,0.0459 -0.228444,0.0687 -0.351916,0.0687 -0.127,0 -0.24678,-0.0237 -0.35966796,-0.0713 -0.112889,-0.0494 -0.21062,-0.11553 -0.293522,-0.19844 -0.0829,-0.0847 -0.149049,-0.18291 -0.198438,-0.29404 -0.01783,-0.0422 -0.02915,-0.0865 -0.04031,-0.13074 l 0.08217,0.0253 0.01757,-0.078 -0.120406,-0.0847 0.0078,-0.0935 0.100253,0.0377 0.0031,-0.0682 0.08423,0.0331 0.05013,0.14573 0.09508,0.0465 -0.04134,0.032 0.150379,0.36018 0.104386,0.0119 -0.0801,-0.2682 -0.04237,-0.0357 0.06511,0.008 0.11523896,0.28525 0.625801,0.0749 0.02532,-0.0109 -0.0088,-0.10542 0.01085,-0.0868 -0.03617,-0.0558 -0.0015,-0.1509 -0.01757,-0.006 -0.01292,0.0672 -0.02894,-0.0935 -0.0124,0.0134 -0.0057,-10e-4 0.0057,0.0124 h -0.01395 l -0.0093,-0.01 -10e-4,-0.0222 -0.0124,0.0155 -0.0052,-0.005 -0.0031,0.007 -0.0052,-0.005 -0.01447,-10e-4 -0.0041,0.0341 -0.01499,-0.0357 -0.02274,0.016 -0.0083,-0.0103 -0.0057,0.0186 -0.0036,-0.0145 -0.0041,0.003 -0.01085,-0.007 -0.0124,0.004 0.0052,0.0496 -0.01705,-0.0258 -0.0036,0.0372 -0.02636,-0.0517 -0.02119,0.006 0.02015,0.11524 -0.03049,-0.11679 -0.06459,0.006 -0.01292,0.0651 -0.02377,-0.0413 -0.07286,0.0155 0.01912,0.0558 -0.0083,0.007 -0.03359,-0.046 -0.0987,-0.0108 0.05219,0.12144 -0.15192797,-0.19741 0.01447,-0.0858 -0.109554,-0.0775 -0.04858,0.0496 -0.09457,-0.047 -0.04289,-0.12454 -0.150378,-0.0486 0.05684,-0.017 0.0832,-0.13591002 -0.0041,-0.1912 0.04961,-0.0238 -0.02946,-0.12299 0.01137,-0.004 0.04754,0.0997 0.07338,-0.0548 -0.02584,-0.1788 c 0.01287,-0.009 0.02482,-0.0197 0.03824,-0.0284 l 0.02997,0.20205 -0.0832,0.22376 0.05168,0.0806 -0.179317,0.10490002 -0.0021,0.045 0.116272,-0.002 0.201021,0.1772501 0.0863,-0.0491 0.06666,0.0703 0.04754,0.10077 0.02945,-0.003 0.04238,0.0749 0.01137,-0.0191 0.0067,0.0165 0.01912,0.002 -0.0031,-0.0393 0.03772,0.0129 0.0026,-0.0393 0.0155,0.0139 0.0078,0.0295 0.01085,-0.032 5.17e-4,-0.0264 0.04392,0.0387 0.01085,-0.0605 0.02067,0.0408 0.01964,-0.0124 0.01395,0.0233 0.01085,-0.0284 -0.0057,-0.0217 0.03049,0.0264 -0.01188,-0.0538 0.03359,0.0568 0.02119,-0.0274 0.01912,0.003 0.0098,0.0413 0.02997,-0.004 0.0062,-0.0357 h 0.0155 l 0.01602,0.0455 0.0093,-0.0155 0.02274,-0.001 -0.02636,-0.0842 0.07803,-0.10904 -0.02584,-0.33021012 0.04238,-0.18087 -0.117822,-0.13023 -0.173116,-0.26871 c 0.0864,0.009 0.170628,0.0259 0.25063,0.0589 0.112889,0.0459 0.212776,0.11283 0.299207,0.20102 l 0.09508,-0.0925 c -0.100541,-0.10054 -0.212424,-0.17622 -0.335896,-0.22738 -0.127,-0.0547 -0.263909,-0.0822 -0.410311,-0.0822 z m 9.524999,0.008 -0.12144,0.0527 0.936377,2.06912 0.936894,-2.06912 -0.121957,-0.0527 -0.814937,1.80144 z m -8.3292071,0.0264 v 2.04484 h 0.132292 v -0.73794 h 0.426331 0.02377 l 0.597896,0.77773 0.105937,-0.0791 -0.54777,-0.7121 c 0.14993,-0.0265 0.274326,-0.088 0.373103,-0.185 0.128764,-0.12524 0.19327,-0.28747 0.19327,-0.48679 0,-0.0988 -0.01877,-0.18779 -0.05581,-0.26717 -0.03528,-0.0794 -0.08891,-0.14634 -0.161231,-0.20102 -0.132291,-0.10231 -0.307041,-0.15348 -0.523999,-0.15348 z m 1.759583,0 v 2.04484 h 1.121895 v -0.13229 h -0.989603 v -0.8754 h 0.963248 v -0.1323 h -0.963248 v -0.77256 h 0.989603 v -0.13229 z m 4.797123,0 v 2.04484 h 0.132292 v -0.73794 h 0.425814 0.02119 c 0.105833,0 0.203564,-0.0166 0.293522,-0.0501 0.09172,-0.0353 0.1712011,-0.0848 0.2382281,-0.14831 0.128763,-0.12524 0.193269,-0.28747 0.193269,-0.48679 0,-0.20285 -0.07404,-0.35965 -0.222207,-0.47077 -0.132292,-0.10055 -0.3054021,-0.1509 -0.5188321,-0.1509 z m 3.8974361,0 v 2.04484 h 0.132291 v -0.73794 h 0.425814 0.02119 c 0.105834,0 0.203564,-0.0166 0.293523,-0.0501 0.09172,-0.0353 0.1712,-0.0848 0.238228,-0.14831 0.128764,-0.12524 0.19327,-0.28747 0.19327,-0.48679 0,-0.20285 -0.07404,-0.35965 -0.222209,-0.47077 -0.132291,-0.10055 -0.305401,-0.1509 -0.518831,-0.1509 z m 6.397542,0 v 0.13229 h 1.150834 l -1.322917,1.91255 h 1.452625 v -0.13229 h -1.201477 l 1.322917,-1.91255 z m -16.7193921,0.13229 h 0.431498 c 0.04586,0 0.103291,0.005 0.172083,0.0155 0.06879,0.009 0.135757,0.03 0.201021,0.0636 0.06526,0.0335 0.120537,0.083 0.166398,0.14831 0.04586,0.0635 0.06925,0.15087 0.06925,0.262 0,0.16228 -0.05117,0.29293 -0.153479,0.39171 -0.05644,0.0547 -0.123411,0.0958 -0.201022,0.12402 -0.07761,0.0282 -0.163346,0.0407 -0.256832,0.0372 h -0.428914 z m 6.556706,0 h 0.430981 c 0.192264,0 0.341685,0.0433 0.4475181,0.12971 0.107597,0.0847 0.161231,0.20445 0.161231,0.35967 0,0.16228 -0.05117,0.29293 -0.153479,0.39171 -0.05645,0.0547 -0.1234111,0.0958 -0.2010221,0.12402 -0.07761,0.0265 -0.163346,0.039 -0.256832,0.0372 h -0.428397 z m 3.8974351,0 h 0.430982 c 0.192263,0 0.341168,0.0433 0.447001,0.12971 0.107597,0.0847 0.161747,0.20445 0.161747,0.35967 0,0.16228 -0.05117,0.29293 -0.153479,0.39171 -0.05644,0.0547 -0.12341,0.0958 -0.201021,0.12402 -0.07761,0.0265 -0.163346,0.039 -0.256832,0.0372 h -0.428398 z m -11.954825,0.20826 c 0.01894,8.3e-4 0.04016,0.0327 0.05426,0.045 0.01637,0.014 0.03721,0.0574 0.03721,0.0574 0,0 0.008,0.0624 0.0047,0.0786 -0.0033,0.0162 -0.01777,0.026 -0.01344,0.0413 0.0043,0.0153 -0.01292,0.11989 -0.01292,0.11989 0,0 -0.05956,0.0555 -0.07131,0.0667 -0.01175,0.0112 -0.07427,0.0358 -0.09147,0.0398 -0.0172,0.004 -0.09427,0.004 -0.11523896,-0.002 -0.02101,-0.005 -0.03584,-0.0236 -0.05219,-0.0393 -0.01636,-0.0156 -0.02728,-0.0504 -0.04031,-0.0801 -0.01304,-0.0297 0.07771,-0.25479 0.0801,-0.25838 0.0023,-0.003 0.07648,-0.0506 0.07648,-0.0506 l 0.06201,-0.0165 0.02894,0.0517 c 0.001,9e-5 0.0055,-1e-5 0.01085,-0.005 0.006,-0.006 0.01287,-0.0332 0.03359,-0.0455 0.0026,-0.002 0.005,-0.002 0.0078,-0.002 3.07e-4,0 7.43e-4,-1e-5 0.001,0 z m 0.315227,0.0692 0.07493,0.0315 0.0894,0.10387 c 0,0 -0.01268,0.13567 -0.01499,0.15813 -0.0022,0.0225 0.01137,0.14882 0.01137,0.14882 l -0.129191,-0.13435 c 0,0 -0.0018,0.0782 -0.0041,0.11058 -0.0023,0.0324 -0.01912,0.13436 -0.01912,0.13436 l -0.04134,-0.0822 -0.05529,-0.006 -0.0047,-0.13901002 c 0,0 0.02772,-0.0384 0.02842,-0.0476 7.1e-4,-0.01 -0.05323,-0.10593 -0.05323,-0.10593 l 0.08888,0.0703 5.17e-4,-0.0739 -0.07752,-0.0858 0.05116,0.007 z m -0.454236,0.0109 c 0,0 -0.01834,0.0417 -0.01912,0.0522 -7.88e-4,0.0106 0.0015,0.0212 0.0015,0.0212 l 0.01499,-0.015 -10e-4,0.0264 0.02481,0.0103 0.01189,-0.006 0.0026,-0.032 0.0072,-0.002 -0.0026,-0.0207 z m 0.05219,0.17363 -0.02274,0.0114 -0.0015,0.0434 0.0155,0.002 -0.0016,0.014 0.0248,0.0129 0.01705,-0.008 0.0057,-0.0217 -0.02274,-0.0124 0.0052,-0.0243 -0.01189,0.0124 z m 0.225309,0.0114 0.05116,0.0889 c 0,0 -0.02261,0.0412 -0.02584,0.0558 -0.0032,0.0145 0.0041,0.0646 0.0041,0.0646 l -0.02842,-0.0661 -0.02739,-0.002 c 0,0 0.01972,-0.0646 0.02015,-0.0703 3.94e-4,-0.005 0.0062,-0.0695 0.0062,-0.0698 z m -0.259932,0.44648 -0.03514,0.0434 c 0,0 0.02091,0.11037 0.02429,0.11214 0.0033,0.002 0.105936,0.10335 0.105936,0.10335 l 0.0062,-0.0326 0.02377,0.0212 0.02222,-0.0124 0.01964,0.002 -0.02791,-0.0631 -0.07286,-0.0341 z m 13.774869,0.80512 c -0.03175,0 -0.05924,0.0117 -0.08217,0.0346 -0.02293,0.0229 -0.03462,0.0499 -0.03462,0.0816 0,0.0317 0.01169,0.0584 0.03462,0.0796 0.02293,0.0229 0.05042,0.0341 0.08217,0.0341 0.03175,0 0.05872,-0.0112 0.08165,-0.0341 0.02293,-0.0212 0.03462,-0.0478 0.03462,-0.0796 0,-0.0318 -0.01169,-0.0587 -0.03462,-0.0816 -0.02293,-0.0229 -0.0499,-0.0346 -0.08165,-0.0346 z"/>
   <path
   class="glitch_2"
   style="fill:#000000"
   d="m 7.2429699,0.1796297 -0.712101,1.79368 -0.655774,-1.75906 -0.121956,0.0475 0.772562,2.08204 0.717269,-1.80454 0.716752,1.80454 0.772563,-2.08204 -0.12144,-0.0475 -0.65629,1.75906 z m 8.1726271,0.0186 -0.10542,0.0796 0.687813,0.94413 -0.743624,1.02164 0.105937,0.0791 0.719853,-0.98651 0.719336,0.98651 0.10852,-0.0791 -0.746207,-1.02164 0.690913,-0.94413 -0.105936,-0.0796 -0.666626,0.91261 z m 1.83658,0.003 -0.10852,0.0739 0.827856,1.18804 v 0.82011 h 0.132292 v -0.82011 l 0.828373,-1.18804 -0.10852,-0.0739 -0.785999,1.12448 z m -15.930809,0.003 c -0.144639,0 -0.282367,0.0275 -0.41289496,0.0822 -0.127,0.0547 -0.238063,0.13037 -0.333313,0.22738 -0.09878,0.0952 -0.17446,0.20713 -0.227376,0.3359 -0.05468,0.127 -0.08217,0.2639 -0.08217,0.41031 0,0.1464 0.02749,0.28331 0.08217,0.41031 0.05115,0.12347 0.126835,0.23535 0.227376,0.33589 0.04762,0.0494 0.09962,0.0927 0.156063,0.12971 0.05644,0.037 0.115514,0.0694 0.17725,0.0977 0.13581896,0.0547 0.27354796,0.0822 0.41289496,0.0822 0.139347,0 0.276255,-0.0275 0.410311,-0.0822 0.123472,-0.0512 0.235355,-0.12683 0.335896,-0.22738 l -0.09508,-0.0925 c -0.08643,0.0882 -0.186318,0.15516 -0.299207,0.20102 -0.111125,0.0459 -0.228444,0.0687 -0.351916,0.0687 -0.127,0 -0.24678,-0.0237 -0.35966796,-0.0713 -0.112889,-0.0494 -0.21062,-0.11553 -0.293522,-0.19844 -0.0829,-0.0847 -0.149049,-0.18291 -0.198438,-0.29404 -0.01783,-0.0422 -0.02915,-0.0865 -0.04031,-0.13074 l 0.08217,0.0253 0.01757,-0.078 -0.120406,-0.0847 0.0078,-0.0935 0.100253,0.0377 0.0031,-0.0682 0.08423,0.0331 0.05013,0.14573 0.09508,0.0465 -0.04134,0.032 0.150379,0.36018 0.104386,0.0119 -0.0801,-0.2682 -0.04237,-0.0357 0.06511,0.008 0.11523896,0.28525 0.625801,0.0749 0.02532,-0.0109 -0.0088,-0.10542 0.01085,-0.0868 -0.03617,-0.0558 -0.0015,-0.1509 -0.01757,-0.006 -0.01292,0.0672 -0.02894,-0.0935 -0.0124,0.0134 -0.0057,-10e-4 0.0057,0.0124 h -0.01395 l -0.0093,-0.01 -10e-4,-0.0222 -0.0124,0.0155 -0.0052,-0.005 -0.0031,0.007 -0.0052,-0.005 -0.01447,-10e-4 -0.0041,0.0341 -0.01499,-0.0357 -0.02274,0.016 -0.0083,-0.0103 -0.0057,0.0186 -0.0036,-0.0145 -0.0041,0.003 -0.01085,-0.007 -0.0124,0.004 0.0052,0.0496 -0.01705,-0.0258 -0.0036,0.0372 -0.02636,-0.0517 -0.02119,0.006 0.02015,0.11524 -0.03049,-0.11679 -0.06459,0.006 -0.01292,0.0651 -0.02377,-0.0413 -0.07286,0.0155 0.01912,0.0558 -0.0083,0.007 -0.03359,-0.046 -0.0987,-0.0108 0.05219,0.12144 -0.15192797,-0.19741 0.01447,-0.0858 -0.109554,-0.0775 -0.04858,0.0496 -0.09457,-0.047 -0.04289,-0.12454 -0.150378,-0.0486 0.05684,-0.017 0.0832,-0.13591002 -0.0041,-0.1912 0.04961,-0.0238 -0.02946,-0.12299 0.01137,-0.004 0.04754,0.0997 0.07338,-0.0548 -0.02584,-0.1788 c 0.01287,-0.009 0.02482,-0.0197 0.03824,-0.0284 l 0.02997,0.20205 -0.0832,0.22376 0.05168,0.0806 -0.179317,0.10490002 -0.0021,0.045 0.116272,-0.002 0.201021,0.1772501 0.0863,-0.0491 0.06666,0.0703 0.04754,0.10077 0.02945,-0.003 0.04238,0.0749 0.01137,-0.0191 0.0067,0.0165 0.01912,0.002 -0.0031,-0.0393 0.03772,0.0129 0.0026,-0.0393 0.0155,0.0139 0.0078,0.0295 0.01085,-0.032 5.17e-4,-0.0264 0.04392,0.0387 0.01085,-0.0605 0.02067,0.0408 0.01964,-0.0124 0.01395,0.0233 0.01085,-0.0284 -0.0057,-0.0217 0.03049,0.0264 -0.01188,-0.0538 0.03359,0.0568 0.02119,-0.0274 0.01912,0.003 0.0098,0.0413 0.02997,-0.004 0.0062,-0.0357 h 0.0155 l 0.01602,0.0455 0.0093,-0.0155 0.02274,-0.001 -0.02636,-0.0842 0.07803,-0.10904 -0.02584,-0.33021012 0.04238,-0.18087 -0.117822,-0.13023 -0.173116,-0.26871 c 0.0864,0.009 0.170628,0.0259 0.25063,0.0589 0.112889,0.0459 0.212776,0.11283 0.299207,0.20102 l 0.09508,-0.0925 c -0.100541,-0.10054 -0.212424,-0.17622 -0.335896,-0.22738 -0.127,-0.0547 -0.263909,-0.0822 -0.410311,-0.0822 z m 9.524999,0.008 -0.12144,0.0527 0.936377,2.06912 0.936894,-2.06912 -0.121957,-0.0527 -0.814937,1.80144 z m -8.3292071,0.0264 v 2.04484 h 0.132292 v -0.73794 h 0.426331 0.02377 l 0.597896,0.77773 0.105937,-0.0791 -0.54777,-0.7121 c 0.14993,-0.0265 0.274326,-0.088 0.373103,-0.185 0.128764,-0.12524 0.19327,-0.28747 0.19327,-0.48679 0,-0.0988 -0.01877,-0.18779 -0.05581,-0.26717 -0.03528,-0.0794 -0.08891,-0.14634 -0.161231,-0.20102 -0.132291,-0.10231 -0.307041,-0.15348 -0.523999,-0.15348 z m 1.759583,0 v 2.04484 h 1.121895 v -0.13229 h -0.989603 v -0.8754 h 0.963248 v -0.1323 h -0.963248 v -0.77256 h 0.989603 v -0.13229 z m 4.797123,0 v 2.04484 h 0.132292 v -0.73794 h 0.425814 0.02119 c 0.105833,0 0.203564,-0.0166 0.293522,-0.0501 0.09172,-0.0353 0.1712011,-0.0848 0.2382281,-0.14831 0.128763,-0.12524 0.193269,-0.28747 0.193269,-0.48679 0,-0.20285 -0.07404,-0.35965 -0.222207,-0.47077 -0.132292,-0.10055 -0.3054021,-0.1509 -0.5188321,-0.1509 z m 3.8974361,0 v 2.04484 h 0.132291 v -0.73794 h 0.425814 0.02119 c 0.105834,0 0.203564,-0.0166 0.293523,-0.0501 0.09172,-0.0353 0.1712,-0.0848 0.238228,-0.14831 0.128764,-0.12524 0.19327,-0.28747 0.19327,-0.48679 0,-0.20285 -0.07404,-0.35965 -0.222209,-0.47077 -0.132291,-0.10055 -0.305401,-0.1509 -0.518831,-0.1509 z m 6.397542,0 v 0.13229 h 1.150834 l -1.322917,1.91255 h 1.452625 v -0.13229 h -1.201477 l 1.322917,-1.91255 z m -16.7193921,0.13229 h 0.431498 c 0.04586,0 0.103291,0.005 0.172083,0.0155 0.06879,0.009 0.135757,0.03 0.201021,0.0636 0.06526,0.0335 0.120537,0.083 0.166398,0.14831 0.04586,0.0635 0.06925,0.15087 0.06925,0.262 0,0.16228 -0.05117,0.29293 -0.153479,0.39171 -0.05644,0.0547 -0.123411,0.0958 -0.201022,0.12402 -0.07761,0.0282 -0.163346,0.0407 -0.256832,0.0372 h -0.428914 z m 6.556706,0 h 0.430981 c 0.192264,0 0.341685,0.0433 0.4475181,0.12971 0.107597,0.0847 0.161231,0.20445 0.161231,0.35967 0,0.16228 -0.05117,0.29293 -0.153479,0.39171 -0.05645,0.0547 -0.1234111,0.0958 -0.2010221,0.12402 -0.07761,0.0265 -0.163346,0.039 -0.256832,0.0372 h -0.428397 z m 3.8974351,0 h 0.430982 c 0.192263,0 0.341168,0.0433 0.447001,0.12971 0.107597,0.0847 0.161747,0.20445 0.161747,0.35967 0,0.16228 -0.05117,0.29293 -0.153479,0.39171 -0.05644,0.0547 -0.12341,0.0958 -0.201021,0.12402 -0.07761,0.0265 -0.163346,0.039 -0.256832,0.0372 h -0.428398 z m -11.954825,0.20826 c 0.01894,8.3e-4 0.04016,0.0327 0.05426,0.045 0.01637,0.014 0.03721,0.0574 0.03721,0.0574 0,0 0.008,0.0624 0.0047,0.0786 -0.0033,0.0162 -0.01777,0.026 -0.01344,0.0413 0.0043,0.0153 -0.01292,0.11989 -0.01292,0.11989 0,0 -0.05956,0.0555 -0.07131,0.0667 -0.01175,0.0112 -0.07427,0.0358 -0.09147,0.0398 -0.0172,0.004 -0.09427,0.004 -0.11523896,-0.002 -0.02101,-0.005 -0.03584,-0.0236 -0.05219,-0.0393 -0.01636,-0.0156 -0.02728,-0.0504 -0.04031,-0.0801 -0.01304,-0.0297 0.07771,-0.25479 0.0801,-0.25838 0.0023,-0.003 0.07648,-0.0506 0.07648,-0.0506 l 0.06201,-0.0165 0.02894,0.0517 c 0.001,9e-5 0.0055,-1e-5 0.01085,-0.005 0.006,-0.006 0.01287,-0.0332 0.03359,-0.0455 0.0026,-0.002 0.005,-0.002 0.0078,-0.002 3.07e-4,0 7.43e-4,-1e-5 0.001,0 z m 0.315227,0.0692 0.07493,0.0315 0.0894,0.10387 c 0,0 -0.01268,0.13567 -0.01499,0.15813 -0.0022,0.0225 0.01137,0.14882 0.01137,0.14882 l -0.129191,-0.13435 c 0,0 -0.0018,0.0782 -0.0041,0.11058 -0.0023,0.0324 -0.01912,0.13436 -0.01912,0.13436 l -0.04134,-0.0822 -0.05529,-0.006 -0.0047,-0.13901002 c 0,0 0.02772,-0.0384 0.02842,-0.0476 7.1e-4,-0.01 -0.05323,-0.10593 -0.05323,-0.10593 l 0.08888,0.0703 5.17e-4,-0.0739 -0.07752,-0.0858 0.05116,0.007 z m -0.454236,0.0109 c 0,0 -0.01834,0.0417 -0.01912,0.0522 -7.88e-4,0.0106 0.0015,0.0212 0.0015,0.0212 l 0.01499,-0.015 -10e-4,0.0264 0.02481,0.0103 0.01189,-0.006 0.0026,-0.032 0.0072,-0.002 -0.0026,-0.0207 z m 0.05219,0.17363 -0.02274,0.0114 -0.0015,0.0434 0.0155,0.002 -0.0016,0.014 0.0248,0.0129 0.01705,-0.008 0.0057,-0.0217 -0.02274,-0.0124 0.0052,-0.0243 -0.01189,0.0124 z m 0.225309,0.0114 0.05116,0.0889 c 0,0 -0.02261,0.0412 -0.02584,0.0558 -0.0032,0.0145 0.0041,0.0646 0.0041,0.0646 l -0.02842,-0.0661 -0.02739,-0.002 c 0,0 0.01972,-0.0646 0.02015,-0.0703 3.94e-4,-0.005 0.0062,-0.0695 0.0062,-0.0698 z m -0.259932,0.44648 -0.03514,0.0434 c 0,0 0.02091,0.11037 0.02429,0.11214 0.0033,0.002 0.105936,0.10335 0.105936,0.10335 l 0.0062,-0.0326 0.02377,0.0212 0.02222,-0.0124 0.01964,0.002 -0.02791,-0.0631 -0.07286,-0.0341 z m 13.774869,0.80512 c -0.03175,0 -0.05924,0.0117 -0.08217,0.0346 -0.02293,0.0229 -0.03462,0.0499 -0.03462,0.0816 0,0.0317 0.01169,0.0584 0.03462,0.0796 0.02293,0.0229 0.05042,0.0341 0.08217,0.0341 0.03175,0 0.05872,-0.0112 0.08165,-0.0341 0.02293,-0.0212 0.03462,-0.0478 0.03462,-0.0796 0,-0.0318 -0.01169,-0.0587 -0.03462,-0.0816 -0.02293,-0.0229 -0.0499,-0.0346 -0.08165,-0.0346 z"/>
</svg>
